<svg xmlns="http://www.w3.org/2000/svg" width="undefined" height="undefined" viewBox="0 0 24 24"><path fill="currentColor" d="M6.909 16.286c-.16-.017-.48-.163-.48-.617c0-.459.377-.66.565-.669c.926 0 1.127-.686 1.149-1.067v-3.369c0-2.185 1.868-3.205 2.768-3.441c0-.844.678-1.097 1.063-1.123h.052c.385.026 1.063.279 1.063 1.123c.9.236 2.768 1.256 2.768 3.441v3.369c.022.386.223 1.067 1.149 1.067a.66.66 0 0 1 .565.669c0 .454-.321.6-.48.617zm5.09 2.143c-1.066 0-1.928-.772-1.928-1.715h3.858c0 .943-.862 1.715-1.93 1.715"/><path fill="currentColor" d="M6.909 16.286H17.09c.159-.017.48-.163.48-.617a.654.654 0 0 0-.565-.669c-.926 0-1.127-.686-1.149-1.067v-3.369c0-2.185-1.868-3.205-2.768-3.441c0-.844-.678-1.097-1.063-1.123h-.052c-.386.026-1.063.279-1.063 1.123c-.9.236-2.768 1.256-2.768 3.441v3.369a1.25 1.25 0 0 1-1.286 1.144c-.189.009-.429.133-.429.592c0 .454.322.6.48.617m2.17-10.072a.107.107 0 0 1-.073.138c-1.757.527-2.048 2.014-1.975 2.69a.108.108 0 0 1-.215.022a2.8 2.8 0 0 1 2.13-2.918a.105.105 0 0 1 .133.073z"/><path fill="currentColor" d="M8.979 5.113a.107.107 0 0 1-.073.129c-2.482.75-2.889 2.85-2.786 3.8a.108.108 0 1 1-.214.022c-.107-1.015.33-3.24 2.94-4.024a.11.11 0 0 1 .133.073m5.944 1.101a.11.11 0 0 0 .073.138c1.757.527 2.048 2.014 1.975 2.69a.107.107 0 1 0 .215.022a2.8 2.8 0 0 0-2.13-2.918a.107.107 0 0 0-.133.073z"/><path fill="currentColor" d="M15.021 5.113a.1.1 0 0 0 .073.129c2.482.75 2.889 2.85 2.786 3.8a.107.107 0 0 0 .214.022c.107-1.015-.33-3.24-2.94-4.024a.107.107 0 0 0-.133.073"/></svg>